HIERARCHY
ROOT SpineBase
{
  OFFSET 0.000000 0.000000 0.000000
  CHANNELS 6 Xposition Yposition Zposition Zrotation Xrotation Yrotation
  JOINT SpineMid
  {
    OFFSET 0.000000 24.644566 0.000000
    CHANNELS 3 Zrotation Xrotation Yrotation
    JOINT SpineShoulder
    {
      OFFSET -0.037852 18.347432 -0.500276
      CHANNELS 3 Zrotation Xrotation Yrotation
      JOINT Neck
      {
        OFFSET -0.031557 6.102502 -0.408816
        CHANNELS 3 Zrotation Xrotation Yrotation
        JOINT Head
        {
          OFFSET -3.133960 10.817112 1.581856
          CHANNELS 3 Zrotation Xrotation Yrotation
          End Site
          {
            OFFSET 0 0 0
          }
        }
      }
      JOINT ShoulderLeft
      {
        OFFSET -9.782950 -1.781540 1.831678
        CHANNELS 3 Zrotation Xrotation Yrotation
        JOINT ElbowLeft
        {
          OFFSET -2.957020 -23.941021 7.644541
          CHANNELS 3 Zrotation Xrotation Yrotation
          JOINT WristLeft
          {
            OFFSET -1.866266 -18.897813 -1.007611
            CHANNELS 3 Zrotation Xrotation Yrotation
            JOINT HandLeft
            {
              OFFSET -0.560272 -6.655063 -1.518628
              CHANNELS 3 Zrotation Xrotation Yrotation
              JOINT HandTipLeft
              {
                OFFSET -1.077805 -5.558277 -1.866044
                CHANNELS 3 Zrotation Xrotation Yrotation
                End Site
                {
                  OFFSET 0 0 0
                }
              }
              JOINT ThumbLeft
              {
                OFFSET -2.366411 -0.884705 -0.381594
                CHANNELS 3 Zrotation Xrotation Yrotation
                End Site
                {
                  OFFSET 0 0 0
                }
              }
            }
          }
        }
      }
      JOINT ShoulderRight
      {
        OFFSET 10.093482 -1.496358 -6.561498
        CHANNELS 3 Zrotation Xrotation Yrotation
        JOINT ElbowRight
        {
          OFFSET 1.025180 -20.594470 -5.099686
          CHANNELS 3 Zrotation Xrotation Yrotation
          JOINT WristRight
          {
            OFFSET -1.345755 -18.952864 -5.845913
            CHANNELS 3 Zrotation Xrotation Yrotation
            JOINT HandRight
            {
              OFFSET -0.631006 -7.628293 -1.092605
              CHANNELS 3 Zrotation Xrotation Yrotation
              JOINT HandTipRight
              {
                OFFSET -1.729858 -4.863870 -3.354518
                CHANNELS 3 Zrotation Xrotation Yrotation
                End Site
                {
                  OFFSET 0 0 0
                }
              }
              JOINT ThumbRight
              {
                OFFSET -0.404222 -0.821809 -3.236991
                CHANNELS 3 Zrotation Xrotation Yrotation
                End Site
                {
                  OFFSET 0 0 0
                }
              }
            }
          }
        }
      }
    }
  }
  JOINT HipLeft
  {
    OFFSET -4.750028 0.447234 -0.679083
    CHANNELS 3 Zrotation Xrotation Yrotation
    JOINT KneeLeft
    {
      OFFSET 4.933803 -38.385327 2.915881
      CHANNELS 3 Zrotation Xrotation Yrotation
      JOINT AnkleLeft
      {
        OFFSET 7.056572 -33.726319 4.438523
        CHANNELS 3 Zrotation Xrotation Yrotation
        JOINT FootLeft
        {
          OFFSET -0.042403 -6.260362 -2.106548
          CHANNELS 3 Zrotation Xrotation Yrotation
          End Site
          {
            OFFSET 0 0 0
          }
        }
      }
    }
  }
  JOINT HipRight
  {
    OFFSET 4.349417 0.972818 -4.852271
    CHANNELS 3 Zrotation Xrotation Yrotation
    JOINT KneeRight
    {
      OFFSET 6.671884 -38.454924 0.115209
      CHANNELS 3 Zrotation Xrotation Yrotation
      JOINT AnkleRight
      {
        OFFSET 3.923123 -30.213140 3.879194
        CHANNELS 3 Zrotation Xrotation Yrotation
        JOINT FootRight
        {
          OFFSET -4.155931 -4.649072 -1.461340
          CHANNELS 3 Zrotation Xrotation Yrotation
          End Site
          {
            OFFSET 0 0 0
          }
        }
      }
    }
  }
}
MOTION
Frames: 5
Frame Time: 0.033333
25.073604 80.692370 363.549429 -0.000000 0.000000 24.637140 -0.000000 0.000000 -24.637140 -0.000000 0.000000 0.000000 -0.000000 0.000000 0.000000 0.000000 0.000000 0.000000 -0.000000 0.000000 0.000000 -0.000000 0.000000 0.000000 -0.000000 0.000000 0.000000 -0.000000 0.000000 0.000000 0.000000 0.000000 0.000000 0.000000 0.000000 0.000000 -0.000000 0.000000 0.000000 -0.000000 0.000000 0.000000 -0.000000 0.000000 0.000000 -0.000000 0.000000 0.000000 0.000000 0.000000 0.000000 0.000000 0.000000 0.000000 -0.000000 0.000000 -24.637140 -0.000000 0.000000 0.000000 -0.000000 0.000000 0.000000 0.000000 0.000000 0.000000 -0.000000 0.000000 -24.637140 -0.000000 0.000000 0.000000 -0.000000 0.000000 0.000000 0.000000 0.000000 0.000000
25.120022 80.703874 363.590371 -0.014287 0.157134 24.844471 -0.053056 -0.148594 -24.844520 -0.000000 0.000000 0.000000 -0.000000 0.000000 0.000000 0.000000 0.000000 0.000000 -0.000000 0.000000 0.000000 -0.000000 0.000000 0.000000 1.236399 0.975170 -0.374379 0.757534 -2.362322 0.014381 0.000000 0.000000 0.000000 0.000000 0.000000 0.000000 1.276037 -0.335618 -0.329015 -1.181327 -0.734537 0.384514 -1.673672 1.364870 0.188349 3.207109 -3.165153 -0.261555 0.000000 0.000000 0.000000 0.000000 0.000000 0.000000 -0.053056 -0.148594 -24.844520 -0.000000 0.000000 0.000000 -11.923175 18.914865 5.569845 0.000000 0.000000 0.000000 -0.053056 -0.148594 -24.844520 -0.000000 0.000000 0.000000 0.910276 4.501425 -4.323154 0.000000 0.000000 0.000000
25.158370 80.698320 363.627887 -0.024884 0.290088 25.046109 -0.100264 -0.273345 -25.046285 -0.000000 0.000000 0.000000 -0.000000 0.000000 0.000000 0.000000 0.000000 0.000000 0.119286 1.194825 -0.111121 -0.116994 -1.195052 0.108657 2.302031 1.931592 -0.725245 1.365419 -4.527740 0.140561 0.000000 0.000000 0.000000 0.000000 0.000000 0.000000 2.315726 -0.621787 -0.592087 -2.058309 -1.332198 0.681030 -3.046801 2.407636 0.409200 5.997175 -5.759529 -0.541391 0.000000 0.000000 0.000000 0.000000 0.000000 0.000000 -0.100264 -0.273345 -25.046285 -0.000000 0.000000 0.000000 -21.659351 30.378853 11.961066 0.000000 0.000000 0.000000 -0.100264 -0.273345 -25.046285 -0.703875 -0.630418 -0.176122 2.885371 8.293066 -7.506325 0.000000 0.000000 0.000000
25.188648 80.675707 363.661979 -0.031765 0.398566 25.241581 -0.141232 -0.374055 -25.241932 -0.000000 0.000000 0.000000 0.820319 -0.240804 -0.187673 0.000000 0.000000 0.000000 0.192763 1.666647 -0.147837 -0.188542 -1.667130 0.142290 3.178660 2.860931 -1.042296 1.830358 -6.480680 0.343327 0.000000 0.000000 0.000000 0.000000 0.000000 0.000000 3.112742 -0.853278 -0.790647 -2.628896 -1.804718 0.885551 -4.112120 3.139408 0.627282 8.369534 -7.786078 -0.874875 0.000000 0.000000 0.000000 0.000000 0.000000 0.000000 -0.141232 -0.374055 -25.241932 -0.000000 0.000000 0.000000 -28.232545 36.317114 16.867287 0.000000 0.000000 0.000000 -0.141232 -0.374055 -25.241932 -0.947626 -0.866166 -0.241333 4.613650 10.502354 -9.918457 0.000000 0.000000 0.000000
25.210855 80.636036 363.692645 -0.034918 0.482365 25.430516 -0.175604 -0.450621 -25.431059 -0.000000 0.000000 0.000000 0.976164 -0.289879 -0.223799 0.000000 0.000000 0.000000 0.275124 2.055560 -0.172038 -0.269126 -2.056354 0.162272 3.851838 3.755556 -1.315725 2.153343 -8.209912 0.590601 0.000000 0.000000 0.000000 0.000000 0.000000 0.000000 3.662810 -1.026189 -0.926140 -2.890606 -2.160523 0.994423 -4.859922 3.567748 0.816746 10.319804 -9.252569 -1.293705 0.000000 0.000000 0.000000 0.000000 0.000000 0.000000 -0.175604 -0.450621 -25.431059 -0.000000 0.000000 0.000000 -31.727879 39.091593 19.640622 0.000000 0.000000 0.000000 -0.741168 -1.094691 -25.582491 -0.891911 -0.233298 -0.133812 6.396924 11.628014 -11.543242 0.000000 0.000000 0.000000
